<svg xmlns="http://www.w3.org/2000/svg" viewBox="0 0 512 512" fill="none"><circle cx="256" cy="256" r="255"/><path fill="#16e0c8" d="M96 154.426l160 92.376v189L96 343.426z"/><path fill="#6adbc6" d="M256 247.198l160-92.376v189l-160 92.376z"/><path fill="#28ebc6" d="M256.142 63.392l160.09 92.207-160.09 92.207-160.089-92.207z"/><path d="M416 155L256 64v107l66 38zM256 435V330l67-39 93 52zm-67-225l-92-55v188l92-52z"/><path d="M195 213.583l60 34.641v74l-60-34.64zm62 35.038l60-34.641v74l-60 34.641zm-.858-71.123l60.034 34.577-60.034 34.578-60.033-34.578z" fill="#333" fill-opacity=".17"/><path d="M416 155L256 64 97 155v188l159 92 160-92V230l-66 41" stroke="#09eae5" stroke-width="17" stroke-dasharray="1114"/><circle cx="416" cy="155" r="9" fill="#09eae5"/><path d="M322 209l-66-38-67 39v81l67 39 67-39v-41l-38 21" stroke="#333" stroke-width="17" stroke-dasharray="1114"/><circle cx="322" cy="209" r="9" fill="#333"/><circle cx="285" cy="271" r="9" fill="#333"/></svg>